<mxfile host="app.diagrams.net" modified="2023-09-14T07:37:17.113Z" agent="Mozilla/5.0 (X11; Linux x86_64) AppleWebKit/537.36 (KHTML, like Gecko) Chrome/114.0.0.0 Safari/537.36 Edg/114.0.1823.67" etag="B-7qRxZvA2v4l8_H-8eC" version="21.7.5" type="github">
  <diagram id="C5RBs43oDa-KdzZeNtuy" name="Page-1">
    <mxGraphModel dx="3000" dy="775" grid="1" gridSize="10" guides="1" tooltips="1" connect="1" arrows="1" fold="1" page="1" pageScale="1" pageWidth="827" pageHeight="1169" math="0" shadow="0">
      <root>
        <mxCell id="WIyWlLk6GJQsqaUBKTNV-0" />
        <mxCell id="WIyWlLk6GJQsqaUBKTNV-1" parent="WIyWlLk6GJQsqaUBKTNV-0" />
        <mxCell id="jaiz2JZSWv7t4FKkOaWR-3" style="edgeStyle=orthogonalEdgeStyle;rounded=0;orthogonalLoop=1;jettySize=auto;html=1;exitX=0.5;exitY=1;exitDx=0;exitDy=0;entryX=0.5;entryY=0;entryDx=0;entryDy=0;" edge="1" parent="WIyWlLk6GJQsqaUBKTNV-1" source="1VvXPGQ5xc2AV_AhxKoi-1" target="jaiz2JZSWv7t4FKkOaWR-0">
          <mxGeometry relative="1" as="geometry" />
        </mxCell>
        <mxCell id="1VvXPGQ5xc2AV_AhxKoi-1" value="&lt;span style=&quot;font-size: 18px;&quot;&gt;cnmc&lt;/span&gt;" style="rounded=1;whiteSpace=wrap;html=1;fontSize=12;glass=0;strokeWidth=1;shadow=0;fillColor=#d5e8d4;strokeColor=#82b366;" parent="WIyWlLk6GJQsqaUBKTNV-1" vertex="1">
          <mxGeometry x="-1167" y="220" width="106" height="40" as="geometry" />
        </mxCell>
        <mxCell id="1VvXPGQ5xc2AV_AhxKoi-3" value="&lt;font style=&quot;font-size: 18px;&quot;&gt;cnbin&lt;/font&gt;" style="rounded=1;whiteSpace=wrap;html=1;fontSize=12;glass=0;strokeWidth=1;shadow=0;fillColor=#d5e8d4;strokeColor=#82b366;" parent="WIyWlLk6GJQsqaUBKTNV-1" vertex="1">
          <mxGeometry x="-744.06" y="545" width="106" height="40" as="geometry" />
        </mxCell>
        <mxCell id="o8AXfJ6d0ml3byffhMXa-13" value="" style="edgeStyle=orthogonalEdgeStyle;rounded=0;orthogonalLoop=1;jettySize=auto;html=1;" parent="WIyWlLk6GJQsqaUBKTNV-1" source="o8AXfJ6d0ml3byffhMXa-0" target="o8AXfJ6d0ml3byffhMXa-3" edge="1">
          <mxGeometry relative="1" as="geometry" />
        </mxCell>
        <mxCell id="o8AXfJ6d0ml3byffhMXa-0" value="&lt;span style=&quot;font-size: 18px;&quot;&gt;ret = libcnbin_asm_assemble&lt;br&gt;(handle， module)&lt;/span&gt;" style="rounded=1;whiteSpace=wrap;html=1;fontSize=12;glass=0;strokeWidth=1;shadow=0;" parent="WIyWlLk6GJQsqaUBKTNV-1" vertex="1">
          <mxGeometry x="-724.06" y="280" width="253.5" height="60" as="geometry" />
        </mxCell>
        <mxCell id="o8AXfJ6d0ml3byffhMXa-12" value="" style="edgeStyle=orthogonalEdgeStyle;rounded=0;orthogonalLoop=1;jettySize=auto;html=1;" parent="WIyWlLk6GJQsqaUBKTNV-1" source="o8AXfJ6d0ml3byffhMXa-2" target="o8AXfJ6d0ml3byffhMXa-0" edge="1">
          <mxGeometry relative="1" as="geometry" />
        </mxCell>
        <mxCell id="o8AXfJ6d0ml3byffhMXa-2" value="&lt;span style=&quot;font-size: 18px;&quot;&gt;libcnbin_asm_create&lt;br&gt;(handle， cnasm_buf)&lt;/span&gt;" style="rounded=1;whiteSpace=wrap;html=1;fontSize=12;glass=0;strokeWidth=1;shadow=0;" parent="WIyWlLk6GJQsqaUBKTNV-1" vertex="1">
          <mxGeometry x="-692.31" y="189" width="190" height="50" as="geometry" />
        </mxCell>
        <mxCell id="o8AXfJ6d0ml3byffhMXa-14" value="" style="edgeStyle=orthogonalEdgeStyle;rounded=0;orthogonalLoop=1;jettySize=auto;html=1;" parent="WIyWlLk6GJQsqaUBKTNV-1" source="o8AXfJ6d0ml3byffhMXa-3" target="o8AXfJ6d0ml3byffhMXa-4" edge="1">
          <mxGeometry relative="1" as="geometry" />
        </mxCell>
        <mxCell id="o8AXfJ6d0ml3byffhMXa-41" value="&lt;font style=&quot;font-size: 14px;&quot;&gt;是&lt;/font&gt;" style="edgeLabel;html=1;align=center;verticalAlign=middle;resizable=0;points=[];" parent="o8AXfJ6d0ml3byffhMXa-14" vertex="1" connectable="0">
          <mxGeometry x="-0.0637" y="-1" relative="1" as="geometry">
            <mxPoint as="offset" />
          </mxGeometry>
        </mxCell>
        <mxCell id="o8AXfJ6d0ml3byffhMXa-16" value="" style="edgeStyle=orthogonalEdgeStyle;rounded=0;orthogonalLoop=1;jettySize=auto;html=1;" parent="WIyWlLk6GJQsqaUBKTNV-1" source="o8AXfJ6d0ml3byffhMXa-3" target="o8AXfJ6d0ml3byffhMXa-7" edge="1">
          <mxGeometry relative="1" as="geometry" />
        </mxCell>
        <mxCell id="o8AXfJ6d0ml3byffhMXa-43" value="&lt;font style=&quot;font-size: 14px;&quot;&gt;否&lt;/font&gt;" style="edgeLabel;html=1;align=center;verticalAlign=middle;resizable=0;points=[];" parent="o8AXfJ6d0ml3byffhMXa-16" vertex="1" connectable="0">
          <mxGeometry x="-0.4101" relative="1" as="geometry">
            <mxPoint as="offset" />
          </mxGeometry>
        </mxCell>
        <mxCell id="o8AXfJ6d0ml3byffhMXa-3" value="&lt;font style=&quot;font-size: 12px;&quot;&gt;ret == ASM_ASSEMBLE_FAILED&lt;/font&gt;" style="rhombus;whiteSpace=wrap;html=1;" parent="WIyWlLk6GJQsqaUBKTNV-1" vertex="1">
          <mxGeometry x="-692.31" y="380" width="190" height="70" as="geometry" />
        </mxCell>
        <mxCell id="o8AXfJ6d0ml3byffhMXa-20" value="" style="edgeStyle=orthogonalEdgeStyle;rounded=0;orthogonalLoop=1;jettySize=auto;html=1;" parent="WIyWlLk6GJQsqaUBKTNV-1" source="o8AXfJ6d0ml3byffhMXa-4" target="o8AXfJ6d0ml3byffhMXa-19" edge="1">
          <mxGeometry relative="1" as="geometry" />
        </mxCell>
        <mxCell id="o8AXfJ6d0ml3byffhMXa-4" value="&lt;span style=&quot;font-size: 18px;&quot;&gt;libcnbin_asm_get_error_log&lt;br&gt;(handle，error_log)&lt;/span&gt;" style="rounded=1;whiteSpace=wrap;html=1;fontSize=12;glass=0;strokeWidth=1;shadow=0;" parent="WIyWlLk6GJQsqaUBKTNV-1" vertex="1">
          <mxGeometry x="-436.56" y="385" width="233.5" height="60" as="geometry" />
        </mxCell>
        <mxCell id="o8AXfJ6d0ml3byffhMXa-11" style="edgeStyle=orthogonalEdgeStyle;rounded=0;orthogonalLoop=1;jettySize=auto;html=1;exitX=0.5;exitY=1;exitDx=0;exitDy=0;entryX=0.5;entryY=0;entryDx=0;entryDy=0;" parent="WIyWlLk6GJQsqaUBKTNV-1" source="o8AXfJ6d0ml3byffhMXa-6" target="o8AXfJ6d0ml3byffhMXa-2" edge="1">
          <mxGeometry relative="1" as="geometry" />
        </mxCell>
        <mxCell id="o8AXfJ6d0ml3byffhMXa-6" value="&lt;span style=&quot;font-size: 18px;&quot;&gt;module = &lt;br&gt;libcnbin_elf_module_new()&lt;/span&gt;" style="rounded=1;whiteSpace=wrap;html=1;fontSize=12;glass=0;strokeWidth=1;shadow=0;" parent="WIyWlLk6GJQsqaUBKTNV-1" vertex="1">
          <mxGeometry x="-709.06" y="110" width="223.5" height="50" as="geometry" />
        </mxCell>
        <mxCell id="o8AXfJ6d0ml3byffhMXa-17" value="" style="edgeStyle=orthogonalEdgeStyle;rounded=0;orthogonalLoop=1;jettySize=auto;html=1;" parent="WIyWlLk6GJQsqaUBKTNV-1" source="o8AXfJ6d0ml3byffhMXa-7" target="o8AXfJ6d0ml3byffhMXa-8" edge="1">
          <mxGeometry relative="1" as="geometry" />
        </mxCell>
        <mxCell id="o8AXfJ6d0ml3byffhMXa-39" style="edgeStyle=orthogonalEdgeStyle;rounded=0;orthogonalLoop=1;jettySize=auto;html=1;exitX=0.5;exitY=1;exitDx=0;exitDy=0;entryX=1;entryY=0.5;entryDx=0;entryDy=0;" parent="WIyWlLk6GJQsqaUBKTNV-1" source="o8AXfJ6d0ml3byffhMXa-7" target="1VvXPGQ5xc2AV_AhxKoi-3" edge="1">
          <mxGeometry relative="1" as="geometry" />
        </mxCell>
        <mxCell id="o8AXfJ6d0ml3byffhMXa-7" value="&lt;span style=&quot;font-size: 18px;&quot;&gt;libcnbin_elf_module_save&lt;br&gt;(module, output)&lt;/span&gt;" style="rounded=1;whiteSpace=wrap;html=1;fontSize=12;glass=0;strokeWidth=1;shadow=0;" parent="WIyWlLk6GJQsqaUBKTNV-1" vertex="1">
          <mxGeometry x="-713.1800000000001" y="480" width="231.75" height="50" as="geometry" />
        </mxCell>
        <mxCell id="o8AXfJ6d0ml3byffhMXa-18" value="" style="edgeStyle=orthogonalEdgeStyle;rounded=0;orthogonalLoop=1;jettySize=auto;html=1;" parent="WIyWlLk6GJQsqaUBKTNV-1" source="o8AXfJ6d0ml3byffhMXa-8" target="o8AXfJ6d0ml3byffhMXa-9" edge="1">
          <mxGeometry relative="1" as="geometry" />
        </mxCell>
        <mxCell id="o8AXfJ6d0ml3byffhMXa-8" value="&lt;span style=&quot;font-size: 18px;&quot;&gt;libcnbin_elf_module_free&lt;br&gt;(module)&lt;/span&gt;" style="rounded=1;whiteSpace=wrap;html=1;fontSize=12;glass=0;strokeWidth=1;shadow=0;" parent="WIyWlLk6GJQsqaUBKTNV-1" vertex="1">
          <mxGeometry x="-708.1800000000001" y="623" width="221.75" height="50" as="geometry" />
        </mxCell>
        <mxCell id="o8AXfJ6d0ml3byffhMXa-9" value="&lt;span style=&quot;font-size: 18px;&quot;&gt;libcnbin_asm_destroy&lt;br&gt;(handle)&lt;/span&gt;" style="rounded=1;whiteSpace=wrap;html=1;fontSize=12;glass=0;strokeWidth=1;shadow=0;" parent="WIyWlLk6GJQsqaUBKTNV-1" vertex="1">
          <mxGeometry x="-694.9300000000001" y="702" width="195.25" height="50" as="geometry" />
        </mxCell>
        <mxCell id="o8AXfJ6d0ml3byffhMXa-40" style="edgeStyle=orthogonalEdgeStyle;rounded=0;orthogonalLoop=1;jettySize=auto;html=1;exitX=0.5;exitY=1;exitDx=0;exitDy=0;" parent="WIyWlLk6GJQsqaUBKTNV-1" source="o8AXfJ6d0ml3byffhMXa-19" edge="1">
          <mxGeometry relative="1" as="geometry">
            <mxPoint x="-594.06" y="590" as="targetPoint" />
            <Array as="points">
              <mxPoint x="-320.06" y="590" />
            </Array>
          </mxGeometry>
        </mxCell>
        <mxCell id="o8AXfJ6d0ml3byffhMXa-19" value="&lt;span style=&quot;font-size: 18px;&quot;&gt;print error log&lt;/span&gt;" style="rounded=1;whiteSpace=wrap;html=1;fontSize=12;glass=0;strokeWidth=1;shadow=0;" parent="WIyWlLk6GJQsqaUBKTNV-1" vertex="1">
          <mxGeometry x="-386.06" y="480" width="132.5" height="40" as="geometry" />
        </mxCell>
        <mxCell id="o8AXfJ6d0ml3byffhMXa-22" value="" style="rounded=0;whiteSpace=wrap;html=1;fillColor=none;dashed=1;" parent="WIyWlLk6GJQsqaUBKTNV-1" vertex="1">
          <mxGeometry x="-994.06" y="170" width="250" height="300" as="geometry" />
        </mxCell>
        <mxCell id="o8AXfJ6d0ml3byffhMXa-25" style="edgeStyle=orthogonalEdgeStyle;rounded=0;orthogonalLoop=1;jettySize=auto;html=1;exitX=0;exitY=0.5;exitDx=0;exitDy=0;" parent="WIyWlLk6GJQsqaUBKTNV-1" source="o8AXfJ6d0ml3byffhMXa-23" edge="1">
          <mxGeometry relative="1" as="geometry">
            <mxPoint x="-594.06" y="259.0952380952381" as="targetPoint" />
          </mxGeometry>
        </mxCell>
        <mxCell id="o8AXfJ6d0ml3byffhMXa-23" value="&lt;font style=&quot;font-size: 18px;&quot;&gt;cnasm&lt;/font&gt;" style="rounded=1;whiteSpace=wrap;html=1;fontSize=12;glass=0;strokeWidth=1;shadow=0;fillColor=#d5e8d4;strokeColor=#82b366;" parent="WIyWlLk6GJQsqaUBKTNV-1" vertex="1">
          <mxGeometry x="-464.06" y="239" width="106" height="40" as="geometry" />
        </mxCell>
        <mxCell id="o8AXfJ6d0ml3byffhMXa-26" style="edgeStyle=orthogonalEdgeStyle;rounded=0;orthogonalLoop=1;jettySize=auto;html=1;exitX=0.5;exitY=1;exitDx=0;exitDy=0;entryX=0.5;entryY=0;entryDx=0;entryDy=0;" parent="WIyWlLk6GJQsqaUBKTNV-1" source="o8AXfJ6d0ml3byffhMXa-28" target="o8AXfJ6d0ml3byffhMXa-30" edge="1">
          <mxGeometry relative="1" as="geometry" />
        </mxCell>
        <mxCell id="o8AXfJ6d0ml3byffhMXa-27" value="ParseAction" style="edgeLabel;html=1;align=center;verticalAlign=middle;resizable=0;points=[];" parent="o8AXfJ6d0ml3byffhMXa-26" vertex="1" connectable="0">
          <mxGeometry x="-0.0716" y="-2" relative="1" as="geometry">
            <mxPoint x="39" as="offset" />
          </mxGeometry>
        </mxCell>
        <mxCell id="o8AXfJ6d0ml3byffhMXa-28" value="&lt;font style=&quot;font-size: 18px;&quot;&gt;lex/yacc&lt;/font&gt;" style="rounded=1;whiteSpace=wrap;html=1;fontSize=12;glass=0;strokeWidth=1;shadow=0;" parent="WIyWlLk6GJQsqaUBKTNV-1" vertex="1">
          <mxGeometry x="-982.06" y="211" width="106" height="40" as="geometry" />
        </mxCell>
        <mxCell id="o8AXfJ6d0ml3byffhMXa-29" style="edgeStyle=orthogonalEdgeStyle;rounded=0;orthogonalLoop=1;jettySize=auto;html=1;exitX=0.5;exitY=1;exitDx=0;exitDy=0;entryX=0.5;entryY=0;entryDx=0;entryDy=0;" parent="WIyWlLk6GJQsqaUBKTNV-1" source="o8AXfJ6d0ml3byffhMXa-30" target="o8AXfJ6d0ml3byffhMXa-34" edge="1">
          <mxGeometry relative="1" as="geometry" />
        </mxCell>
        <mxCell id="o8AXfJ6d0ml3byffhMXa-30" value="&lt;span style=&quot;font-size: 18px;&quot;&gt;AST&lt;/span&gt;" style="rounded=1;whiteSpace=wrap;html=1;fontSize=12;glass=0;strokeWidth=1;shadow=0;" parent="WIyWlLk6GJQsqaUBKTNV-1" vertex="1">
          <mxGeometry x="-982.06" y="290" width="106" height="40" as="geometry" />
        </mxCell>
        <mxCell id="o8AXfJ6d0ml3byffhMXa-31" style="edgeStyle=orthogonalEdgeStyle;curved=1;rounded=0;orthogonalLoop=1;jettySize=auto;html=1;exitX=0.5;exitY=1;exitDx=0;exitDy=0;entryX=0;entryY=0.75;entryDx=0;entryDy=0;" parent="WIyWlLk6GJQsqaUBKTNV-1" source="o8AXfJ6d0ml3byffhMXa-34" edge="1">
          <mxGeometry relative="1" as="geometry">
            <mxPoint x="-724.06" y="320" as="targetPoint" />
            <Array as="points">
              <mxPoint x="-929.06" y="430" />
              <mxPoint x="-774.06" y="430" />
              <mxPoint x="-774.06" y="320" />
            </Array>
          </mxGeometry>
        </mxCell>
        <mxCell id="o8AXfJ6d0ml3byffhMXa-32" value="AssembleAction" style="edgeLabel;html=1;align=center;verticalAlign=middle;resizable=0;points=[];" parent="o8AXfJ6d0ml3byffhMXa-31" vertex="1" connectable="0">
          <mxGeometry x="-0.5239" y="-2" relative="1" as="geometry">
            <mxPoint x="8" y="-22" as="offset" />
          </mxGeometry>
        </mxCell>
        <mxCell id="o8AXfJ6d0ml3byffhMXa-33" value="cnbin" style="edgeLabel;html=1;align=center;verticalAlign=middle;resizable=0;points=[];" parent="o8AXfJ6d0ml3byffhMXa-31" vertex="1" connectable="0">
          <mxGeometry x="-0.1264" y="6" relative="1" as="geometry">
            <mxPoint x="24" y="-24" as="offset" />
          </mxGeometry>
        </mxCell>
        <mxCell id="o8AXfJ6d0ml3byffhMXa-34" value="&lt;span style=&quot;font-size: 18px;&quot;&gt;CNBinMgr&lt;/span&gt;" style="rounded=1;whiteSpace=wrap;html=1;fontSize=12;glass=0;strokeWidth=1;shadow=0;" parent="WIyWlLk6GJQsqaUBKTNV-1" vertex="1">
          <mxGeometry x="-982.06" y="360" width="106" height="40" as="geometry" />
        </mxCell>
        <mxCell id="o8AXfJ6d0ml3byffhMXa-35" style="edgeStyle=orthogonalEdgeStyle;rounded=0;orthogonalLoop=1;jettySize=auto;html=1;exitX=0;exitY=0.25;exitDx=0;exitDy=0;curved=1;entryX=0.5;entryY=0;entryDx=0;entryDy=0;" parent="WIyWlLk6GJQsqaUBKTNV-1" target="o8AXfJ6d0ml3byffhMXa-28" edge="1">
          <mxGeometry relative="1" as="geometry">
            <mxPoint x="-934.06" y="190" as="targetPoint" />
            <Array as="points">
              <mxPoint x="-784.06" y="300" />
              <mxPoint x="-784.06" y="180" />
              <mxPoint x="-929.06" y="180" />
            </Array>
            <mxPoint x="-724.06" y="300" as="sourcePoint" />
          </mxGeometry>
        </mxCell>
        <mxCell id="o8AXfJ6d0ml3byffhMXa-36" value="&lt;font style=&quot;font-size: 14px;&quot;&gt;cnasm&lt;/font&gt;" style="edgeLabel;html=1;align=center;verticalAlign=middle;resizable=0;points=[];" parent="o8AXfJ6d0ml3byffhMXa-35" vertex="1" connectable="0">
          <mxGeometry x="-0.1735" y="5" relative="1" as="geometry">
            <mxPoint as="offset" />
          </mxGeometry>
        </mxCell>
        <mxCell id="jaiz2JZSWv7t4FKkOaWR-7" style="edgeStyle=orthogonalEdgeStyle;rounded=0;orthogonalLoop=1;jettySize=auto;html=1;exitX=0.5;exitY=1;exitDx=0;exitDy=0;entryX=0.5;entryY=0;entryDx=0;entryDy=0;" edge="1" parent="WIyWlLk6GJQsqaUBKTNV-1" source="jaiz2JZSWv7t4FKkOaWR-0" target="jaiz2JZSWv7t4FKkOaWR-1">
          <mxGeometry relative="1" as="geometry" />
        </mxCell>
        <mxCell id="jaiz2JZSWv7t4FKkOaWR-0" value="&lt;span style=&quot;font-size: 18px;&quot;&gt;CNAsmEntry()&lt;/span&gt;" style="rounded=1;whiteSpace=wrap;html=1;fontSize=12;glass=0;strokeWidth=1;shadow=0;" vertex="1" parent="WIyWlLk6GJQsqaUBKTNV-1">
          <mxGeometry x="-1191.06" y="320" width="154.12" height="50" as="geometry" />
        </mxCell>
        <mxCell id="jaiz2JZSWv7t4FKkOaWR-9" style="edgeStyle=orthogonalEdgeStyle;rounded=0;orthogonalLoop=1;jettySize=auto;html=1;exitX=0.5;exitY=1;exitDx=0;exitDy=0;entryX=0.5;entryY=0;entryDx=0;entryDy=0;" edge="1" parent="WIyWlLk6GJQsqaUBKTNV-1" source="jaiz2JZSWv7t4FKkOaWR-1" target="jaiz2JZSWv7t4FKkOaWR-8">
          <mxGeometry relative="1" as="geometry" />
        </mxCell>
        <mxCell id="jaiz2JZSWv7t4FKkOaWR-15" style="edgeStyle=orthogonalEdgeStyle;rounded=0;orthogonalLoop=1;jettySize=auto;html=1;exitX=1;exitY=0.5;exitDx=0;exitDy=0;entryX=0;entryY=0.537;entryDx=0;entryDy=0;entryPerimeter=0;" edge="1" parent="WIyWlLk6GJQsqaUBKTNV-1" source="jaiz2JZSWv7t4FKkOaWR-1" target="jaiz2JZSWv7t4FKkOaWR-13">
          <mxGeometry relative="1" as="geometry" />
        </mxCell>
        <mxCell id="jaiz2JZSWv7t4FKkOaWR-1" value="&lt;span style=&quot;font-size: 18px;&quot;&gt;CNAsmAssemble&lt;br&gt;(InputFile)&lt;/span&gt;" style="rounded=1;whiteSpace=wrap;html=1;fontSize=12;glass=0;strokeWidth=1;shadow=0;" vertex="1" parent="WIyWlLk6GJQsqaUBKTNV-1">
          <mxGeometry x="-1191.06" y="441" width="154.12" height="50" as="geometry" />
        </mxCell>
        <mxCell id="jaiz2JZSWv7t4FKkOaWR-12" style="edgeStyle=orthogonalEdgeStyle;rounded=0;orthogonalLoop=1;jettySize=auto;html=1;exitX=1;exitY=0.5;exitDx=0;exitDy=0;" edge="1" parent="WIyWlLk6GJQsqaUBKTNV-1" source="jaiz2JZSWv7t4FKkOaWR-4">
          <mxGeometry relative="1" as="geometry">
            <mxPoint x="-1114.06" y="290.1379310344828" as="targetPoint" />
          </mxGeometry>
        </mxCell>
        <mxCell id="jaiz2JZSWv7t4FKkOaWR-4" value="&lt;font style=&quot;font-size: 18px;&quot;&gt;--arch=cnasm&lt;/font&gt;" style="rounded=1;whiteSpace=wrap;html=1;fontSize=12;glass=0;strokeWidth=1;shadow=0;fillColor=#d5e8d4;strokeColor=#82b366;" vertex="1" parent="WIyWlLk6GJQsqaUBKTNV-1">
          <mxGeometry x="-1300" y="270" width="140" height="40" as="geometry" />
        </mxCell>
        <mxCell id="jaiz2JZSWv7t4FKkOaWR-8" value="&lt;font style=&quot;font-size: 18px;&quot;&gt;cnbin&lt;/font&gt;" style="rounded=1;whiteSpace=wrap;html=1;fontSize=12;glass=0;strokeWidth=1;shadow=0;fillColor=#d5e8d4;strokeColor=#82b366;" vertex="1" parent="WIyWlLk6GJQsqaUBKTNV-1">
          <mxGeometry x="-1167" y="520" width="106" height="40" as="geometry" />
        </mxCell>
        <mxCell id="jaiz2JZSWv7t4FKkOaWR-11" style="edgeStyle=orthogonalEdgeStyle;rounded=0;orthogonalLoop=1;jettySize=auto;html=1;exitX=1;exitY=0.5;exitDx=0;exitDy=0;" edge="1" parent="WIyWlLk6GJQsqaUBKTNV-1">
          <mxGeometry relative="1" as="geometry">
            <mxPoint x="-1114.06" y="410" as="targetPoint" />
            <mxPoint x="-1167" y="410" as="sourcePoint" />
          </mxGeometry>
        </mxCell>
        <mxCell id="jaiz2JZSWv7t4FKkOaWR-10" value="&lt;font style=&quot;font-size: 18px;&quot;&gt;cnasm&lt;/font&gt;" style="rounded=1;whiteSpace=wrap;html=1;fontSize=12;glass=0;strokeWidth=1;shadow=0;fillColor=#d5e8d4;strokeColor=#82b366;" vertex="1" parent="WIyWlLk6GJQsqaUBKTNV-1">
          <mxGeometry x="-1244.06" y="390" width="84.06" height="40" as="geometry" />
        </mxCell>
        <mxCell id="jaiz2JZSWv7t4FKkOaWR-13" value="" style="rounded=1;whiteSpace=wrap;html=1;fillColor=none;dashed=1;" vertex="1" parent="WIyWlLk6GJQsqaUBKTNV-1">
          <mxGeometry x="-1014.06" y="90" width="820" height="700" as="geometry" />
        </mxCell>
      </root>
    </mxGraphModel>
  </diagram>
</mxfile>
